<svg width="646" height="780" viewBox="0 0 646 780" fill="none" xmlns="http://www.w3.org/2000/svg">
<path opacity="0.24" d="M183.076 688.613C136.627 693.283 88.7523 698.419 47.8789 721.264C42.4082 724.328 36.8536 727.942 33.8353 733.458C27.7776 744.553 34.6527 759.177 45.3217 765.855C55.9907 772.533 69.1541 773.294 81.7095 773.844C305.277 783.586 529.179 779.761 752.935 775.957C817.913 774.858 883.918 773.59 946.193 754.718C957.385 751.337 969.689 746.265 973.903 735.212C979.415 720.757 966.839 704.737 952.166 700.236C937.494 695.735 921.836 699.095 906.661 701.06C853.965 707.886 800.809 697.446 748.344 689.099C645.637 672.784 539.072 659.512 435.044 657.039C399.579 656.215 369.291 668.515 334.58 673.376C284.463 680.434 233.465 683.541 183.076 688.613Z" fill="#505F98"/>
<path d="M0.367227 255.326L116.197 19.4084L185.183 53.1898L69.3536 289.108L0.367227 255.326Z" fill="white"/>
<path d="M27.2129 248.055L41.3264 219.22L87.7905 241.903L73.677 270.738L27.2129 248.055Z" fill="#505F98"/>
<path d="M27.2129 248.055L41.3264 219.22L87.7905 241.903L73.677 270.738L27.2129 248.055Z" fill="url(#paint0_linear)"/>
<path d="M41.3281 219.445L55.4416 190.61L101.906 213.293L87.7923 242.128L41.3281 219.445Z" fill="#505F98"/>
<path d="M41.3281 219.445L55.4416 190.61L101.906 213.293L87.7923 242.128L41.3281 219.445Z" fill="url(#paint1_linear)"/>
<path d="M55.4238 190.826L69.5373 161.991L116.001 184.674L101.888 213.509L55.4238 190.826Z" fill="#505F98"/>
<path d="M55.4238 190.826L69.5373 161.991L116.001 184.674L101.888 213.509L55.4238 190.826Z" fill="url(#paint2_linear)"/>
<path d="M69.5605 162.237L83.674 133.402L130.138 156.085L116.025 184.92L69.5605 162.237Z" fill="#505F98"/>
<path d="M69.5605 162.237L83.674 133.402L130.138 156.085L116.025 184.92L69.5605 162.237Z" fill="url(#paint3_linear)"/>
<path d="M83.666 133.599L97.7795 104.764L144.244 127.447L130.13 156.282L83.666 133.599Z" fill="#505F98"/>
<path d="M97.7832 105.01L111.897 76.1753L158.361 98.8577L144.247 127.693L97.7832 105.01Z" fill="#505F98"/>
<path d="M111.879 76.3912L125.992 47.5563L172.457 70.2387L158.343 99.0736L111.879 76.3912Z" fill="#505F98"/>
<path d="M96.1953 108.598L110.309 79.7633L156.773 102.446L142.659 131.281L96.1953 108.598Z" fill="url(#paint4_linear)"/>
<path d="M110.318 79.9696L124.432 51.1347L170.896 73.8171L156.783 102.652L110.318 79.9696Z" fill="url(#paint5_linear)"/>
<rect x="410.836" y="573" width="98.0679" height="82" fill="#505F98"/>
<rect x="410.836" y="573" width="98.0679" height="82" fill="url(#paint6_linear)"/>
<rect x="202.691" y="231" width="518.359" height="355" rx="9.37" fill="#505F98"/>
<path opacity="0.65" d="M704.039 260.438V554.562C704.056 559.443 702.132 564.129 698.692 567.588C695.252 571.047 690.578 572.994 685.702 573H234.039C229.164 572.989 224.494 571.04 221.055 567.582C217.616 564.125 215.69 559.441 215.701 554.562V260.438C215.69 255.559 217.616 250.875 221.055 247.418C224.494 243.96 229.164 242.011 234.039 242H685.702C690.578 242.006 695.252 243.953 698.692 247.412C702.132 250.871 704.056 255.557 704.039 260.438Z" fill="url(#paint7_linear)"/>
<rect x="365.805" y="645" width="206.143" height="21" fill="#505F98"/>
<rect x="410.836" y="633" width="98.0679" height="12" fill="url(#paint8_linear)"/>
<path fill-rule="evenodd" clip-rule="evenodd" d="M565.944 59.2411V79.7145L553.234 79.8193C551.998 89.3456 548.374 98.4104 542.696 106.181L553.551 117.351L538.671 131.6L527.985 120.578C521.396 125.062 513.961 128.17 506.129 129.714V143H485.558V130.029C476.773 128.76 468.401 125.497 461.088 120.494L452.152 129.316L437.588 114.647L446.461 105.993C440.875 98.2193 437.312 89.191 436.091 79.7145H421.844V59.2411H436.597C438.426 51.0933 442.023 43.4409 447.136 36.8187L438.895 28.3318L453.775 14.0821L462.205 22.8205C469.175 18.2143 477.099 15.2276 485.389 14.0821V0H505.96V14.3964C514.329 16.0545 522.238 19.493 529.144 24.476L539.682 14.1659L554.162 28.709L543.624 39.1867C547.755 45.2671 550.688 52.0725 552.265 59.2411H565.944ZM459.803 72.1496C459.779 91.211 475.302 106.682 494.473 106.705C503.685 106.733 512.528 103.113 519.05 96.6445C525.571 90.1762 529.234 81.3922 529.228 72.2334C529.252 53.1721 513.729 37.7011 494.558 37.678C475.386 37.6548 459.826 53.0883 459.803 72.1496Z" fill="#505F98"/>
<path fill-rule="evenodd" clip-rule="evenodd" d="M641.996 93.3542L641.078 105.396L633.566 104.938C632.439 110.475 629.935 115.641 626.283 119.958L632.147 127.021L622.798 134.729L617.038 127.792C612.984 130.13 608.497 131.625 603.849 132.188L603.244 140L591.203 139.104L591.787 131.479C586.702 130.344 581.947 128.056 577.889 124.792L572.255 129.583L564.387 120.396L569.959 115.688C567.031 110.876 565.346 105.414 565.055 99.7917L556.938 99.1667L557.835 87.1458L566.453 87.7917C567.877 83.0854 570.305 78.7428 573.569 75.0625L569.125 69.7083L578.474 62L583.002 67.5C587.274 65.095 592.029 63.6715 596.921 63.3333L597.547 55L609.588 55.8958L608.941 64.375C613.748 65.7138 618.206 68.0811 622.005 71.3125L628.62 65.7083L636.466 74.8958L629.788 80.5833C631.955 84.3387 633.372 88.4774 633.962 92.7708L641.996 93.3542ZM579.299 96.2429C578.444 107.436 586.837 117.203 598.048 118.062C603.442 118.487 608.783 116.747 612.889 113.228C616.994 109.708 619.523 104.7 619.918 99.3125C620.76 88.1186 612.357 78.3609 601.145 77.5136C589.933 76.6662 580.154 85.05 579.299 96.2429Z" fill="#505F98"/>
<path d="M704.039 260.513V267H215.701V260.513C215.69 255.614 217.616 250.912 221.055 247.44C224.494 243.968 229.165 242.011 234.04 242H685.7C690.577 242.006 695.251 243.961 698.691 247.434C702.132 250.907 704.056 255.613 704.039 260.513Z" fill="url(#paint9_linear)"/>
<rect x="225.707" y="299" width="47.0326" height="227" fill="url(#paint10_linear)"/>
<rect x="343.789" y="315" width="221.153" height="209" fill="url(#paint11_linear)"/>
<rect x="394.824" y="413" width="7.00485" height="9" fill="url(#paint12_linear)"/>
<rect x="394.824" y="371" width="7.00485" height="9" fill="url(#paint13_linear)"/>
<rect x="299.758" y="413" width="7.00485" height="9" fill="url(#paint14_linear)"/>
<rect x="299.758" y="371" width="7.00485" height="9" fill="url(#paint15_linear)"/>
<rect x="394.824" y="326" width="7.00485" height="9" fill="url(#paint16_linear)"/>
<rect x="300.76" y="326" width="7.00485" height="9" fill="url(#paint17_linear)"/>
<rect x="348.793" y="326" width="7.00485" height="9" fill="url(#paint18_linear)"/>
<rect x="348.793" y="413" width="7.00485" height="9" fill="url(#paint19_linear)"/>
<path fill-rule="evenodd" clip-rule="evenodd" d="M312.768 411H390.822V338H312.768V411ZM382.96 403.282H320.63V345.656H382.96V403.282Z" fill="#505F98"/>
<path fill-rule="evenodd" clip-rule="evenodd" d="M312.768 411H390.822V338H312.768V411ZM382.96 403.282H320.63V345.656H382.96V403.282Z" fill="url(#paint20_linear)"/>
<rect x="596.965" y="279" width="100.069" height="100" fill="url(#paint21_linear)"/>
<rect x="596.965" y="389" width="100.069" height="100" fill="url(#paint22_linear)"/>
<rect opacity="0.65" x="225.707" y="298" width="47.0326" height="13" fill="url(#paint23_linear)"/>
<path d="M22.6719 229.827L227.8 65.2927L275.913 125.118L70.7844 289.652L22.6719 229.827Z" fill="white"/>
<path d="M51.3945 234.455L76.462 214.235L109.044 254.522L83.977 274.742L51.3945 234.455Z" fill="#505F98"/>
<path d="M51.3945 234.455L76.462 214.235L109.044 254.522L83.977 274.742L51.3945 234.455Z" fill="url(#paint24_linear)"/>
<path d="M75.0137 214.689L100.046 194.56L132.481 234.79L107.449 254.919L75.0137 214.689Z" fill="#505F98"/>
<path d="M75.0137 214.689L100.046 194.56L132.481 234.79L107.449 254.919L75.0137 214.689Z" fill="url(#paint25_linear)"/>
<path d="M99.957 194.761L124.989 174.633L157.424 214.863L132.392 234.991L99.957 194.761Z" fill="#505F98"/>
<path d="M99.957 194.761L124.989 174.633L157.424 214.863L132.392 234.991L99.957 194.761Z" fill="url(#paint26_linear)"/>
<path d="M124.885 174.847L149.917 154.718L182.352 194.948L157.32 215.077L124.885 174.847Z" fill="#505F98"/>
<path d="M124.885 174.847L149.917 154.718L182.352 194.948L157.32 215.077L124.885 174.847Z" fill="url(#paint27_linear)"/>
<path d="M151.004 154.389L176.071 134.169L208.654 174.456L183.586 194.676L151.004 154.389Z" fill="#505F98"/>
<path d="M176.084 133.99L201.151 113.77L233.734 154.057L208.666 174.277L176.084 133.99Z" fill="#505F98"/>
<path d="M199.691 115.051L224.724 94.9227L257.158 135.153L232.126 155.282L199.691 115.051Z" fill="#505F98"/>
<path d="M229.711 158.218L208.611 175L176.674 134.782L197.773 118L229.711 158.218Z" fill="url(#paint28_linear)"/>
<path d="M196.734 117.648L221.767 97.519L254.201 137.749L229.169 157.878L196.734 117.648Z" fill="url(#paint29_linear)"/>
<path d="M145.651 239.15V362H124.637V239.15C124.637 234.61 127.455 230.57 131.655 229.089V216.825C131.655 214.712 133.331 213 135.398 213C137.466 213 139.141 214.712 139.141 216.825V229.297C143.061 230.935 145.629 234.823 145.651 239.15Z" fill="#505F98"/>
<path d="M145.651 239.15V362H124.637V239.15C124.637 234.61 127.455 230.57 131.655 229.089V216.825C131.655 214.712 133.331 213 135.398 213C137.466 213 139.141 214.712 139.141 216.825V229.297C143.061 230.935 145.629 234.823 145.651 239.15Z" fill="url(#paint30_linear)"/>
<rect x="111.629" y="317" width="50.0346" height="9" rx="2.245" fill="#505F98"/>
<path d="M136.334 399C127.761 399 120.635 386.185 120.635 377.634V321H151.656V377.634C151.656 386.185 144.886 399 136.334 399Z" fill="#505F98"/>
<rect x="111.629" y="317" width="50.0346" height="9" rx="2.245" fill="url(#paint31_linear)"/>
<path d="M136.334 399C127.761 399 120.635 386.366 120.635 377.937V326H151.656V377.937C151.656 386.366 144.886 399 136.334 399Z" fill="url(#paint32_linear)"/>
<path d="M336.426 459C335.752 455.436 335.327 450.39 336.621 450.043C339.349 449.275 336.426 459 336.426 459Z" fill="#28353D"/>
<path d="M479.686 654.507C479.2 667.102 469.438 713.388 469.121 726.004C469.121 730.202 470.241 736.647 468.888 740.698C466.099 749.284 456.21 748.108 454.921 743.049L454.435 740.53C449.849 716.012 457.224 688.198 454.435 656.186C452.765 636.643 444.989 598.963 439.897 598.711C437.213 598.711 375.956 727.851 370.631 735.807C368.01 739.817 360.636 739.187 357.065 742.42C353.494 745.652 386.817 644.515 400.784 591.07C404.042 580.039 406.166 568.709 407.123 557.252C407.504 550.64 405.369 548.415 411.476 546.463C415.702 545.119 421.556 545.497 426.077 545.182C431.001 544.804 476.791 544.72 476.791 547.953C476.347 565.502 480.869 625.412 479.686 654.507Z" fill="#606161"/>
<path d="M479.686 654.507C479.2 667.102 469.438 713.388 469.121 726.004C469.121 730.202 470.241 736.647 468.888 740.698C466.099 749.284 456.21 748.108 454.921 743.049L454.435 740.53C449.849 716.012 457.224 688.198 454.435 656.186C452.765 636.643 444.989 598.963 439.897 598.711C437.213 598.711 375.956 727.851 370.631 735.807C368.01 739.817 360.636 739.187 357.065 742.42C353.494 745.652 386.817 644.515 400.784 591.07C404.042 580.039 406.166 568.709 407.123 557.252C407.504 550.64 405.369 548.415 411.476 546.463C415.702 545.119 421.556 545.497 426.077 545.182C431.001 544.804 476.791 544.72 476.791 547.953C476.347 565.502 480.869 625.412 479.686 654.507Z" fill="url(#paint33_linear)"/>
<path d="M425.613 386.148C425.228 382.163 423.345 380 421.505 380C419.666 380 418.532 382.12 418.917 386.148C419.004 389.122 421.248 391.597 424.222 392C426.084 392 426.019 390.134 425.613 386.148Z" fill="#FFCD9C"/>
<path d="M458.005 386.159C458.256 382.166 460.092 380 461.991 380C463.89 380 465.121 382.124 464.829 386.159C464.803 389.173 462.558 391.687 459.612 392C457.734 392 457.713 390.152 458.005 386.159Z" fill="#FFCD9C"/>
<path d="M461.731 403.672C461.472 405.777 452.557 415 442.412 415C432.266 415 423.891 406.577 422.121 403.208C420.351 399.839 427.474 356.505 431.597 352.884C435.72 349.262 452.428 351.641 453.831 353.558C457.198 358.085 462.832 395.27 461.731 403.672Z" fill="#F4AD7D"/>
<path d="M457.536 370.977C456.157 371.639 450.741 357.842 449.605 355.525C448.469 353.208 448.652 350.829 450.031 350.167C451.41 349.505 453.439 350.871 454.575 353.167C455.711 355.463 458.895 370.336 457.536 370.977Z" fill="#FFCD9C"/>
<path d="M427.165 369.987C425.735 369.501 429.523 355.179 430.349 352.703C431.175 350.228 433.028 348.599 434.378 349.086C435.728 349.573 436.292 351.984 435.466 354.481C434.64 356.977 428.515 370.474 427.165 369.987Z" fill="#FFCD9C"/>
<path d="M432.844 402H454.608L457.869 422.622C446.013 429.005 439.101 428.301 429.85 421.214L432.844 402Z" fill="#F4AD7D"/>
<path d="M441.857 406.13C441.857 405.75 442.763 405.43 443.859 405.43C444.955 405.43 445.86 405.75 445.86 406.13C445.86 406.51 444.979 406.57 443.859 406.57C442.739 406.57 441.857 406.53 441.857 406.13Z" fill="#F4AD7D"/>
<path d="M462.89 396.808C463.714 391.894 465.058 356.708 461.763 352.051C458.468 347.394 438.739 344.381 435.748 345.108C429.049 346.731 430.219 351.517 430.219 351.517C428.228 351.547 426.279 352.084 424.561 353.076C422.263 354.615 417.428 376.79 421.287 393.56C423.022 401.102 429.851 407.66 441.644 407.981C456.17 408.365 461.893 402.896 462.89 396.808Z" fill="#606161"/>
<path d="M435.829 346.762C437.388 345.448 439.408 344.828 441.428 345.041C447.561 345.008 453.645 346.14 459.363 348.376C462.534 349.488 465.413 351.311 467.783 353.708C470.17 356.173 471.27 359.627 470.751 363.034C469.699 368.047 464.436 371.148 462.71 375.97C461.321 379.837 462.31 383.575 462.352 387.463C462.38 390.606 462.155 393.746 461.679 396.852C460.71 402.906 455.174 408.344 440.965 407.983C429.514 407.664 422.883 401.143 421.199 393.644C418.919 381.198 419.517 368.389 422.946 356.215C429.118 357.648 435.432 358.361 441.765 358.339C448.48 358.395 455.176 357.611 461.7 356.002C462.815 362.503 462.794 375.524 462.436 385.253" fill="#606161"/>
<path d="M400.701 418.954C397.267 419.241 393.958 420.384 391.075 422.28C386.138 426.171 385.763 433.43 385.846 439.748C385.677 448.501 386.283 457.252 387.659 465.897C389.138 473.826 391.825 481.441 394.034 489.202C397.515 501.831 399.343 514.862 399.471 527.966C399.471 535.162 399.346 543.07 403.826 548.697C408.722 554.806 417.389 555.998 425.18 556.438C436.243 557.086 447.348 557.17 458.41 556.709C465.827 556.375 473.723 555.643 479.598 551.082C484.286 547.442 495.266 424.288 486.744 421.171C478.223 418.054 469.057 417.259 460.015 416.506C439.743 414.791 420.659 413.431 400.701 418.954Z" fill="#505F98"/>
<path d="M464.52 674.291C463.433 688.255 460.841 739 460.841 739L454.236 738.77C449.7 714.39 456.995 686.732 454.236 654.899C452.585 635.465 444.893 597.996 439.855 597.746C441.36 585.221 449.826 587.1 449.826 587.1C455.982 596.294 461.292 606.026 465.69 616.178C470.728 629.37 465.628 660.263 464.52 674.291Z" fill="url(#paint34_linear)"/>
<path d="M340.163 740.024C339.132 740.786 338.349 741.83 337.911 743.025C337.676 744.009 337.771 745.04 338.182 745.965C339.349 748.326 341.559 750.019 344.167 750.55C346.743 751.04 349.381 751.131 351.986 750.818L360.326 750.262C362.449 750.212 364.554 749.873 366.582 749.255C368.612 748.627 370.288 747.198 371.211 745.308C371.702 743.916 371.894 742.438 371.774 740.969C371.774 734.164 369.355 728.634 361.807 730.299C353.9 731.765 346.473 735.102 340.163 740.024Z" fill="#505F98"/>
<path d="M478.702 743.063C479.649 743.759 480.368 744.709 480.769 745.797C480.983 746.682 480.899 747.611 480.529 748.446C479.467 750.584 477.437 752.114 475.046 752.579C472.689 753.035 470.272 753.121 467.887 752.834L460.315 752.325C458.389 752.284 456.477 751.985 454.635 751.435C452.778 750.864 451.249 749.566 450.414 747.853C449.966 746.595 449.789 745.26 449.892 743.932C449.892 737.785 452.068 732.72 459.009 734.288C466.205 735.619 472.963 738.63 478.702 743.063Z" fill="#505F98"/>
<path d="M487.889 421C487.889 421 520.604 440.163 530.43 464.389C540.255 488.614 498.25 547 498.25 547L489.262 537.814C489.262 537.814 511.187 493.759 507.797 482.74C504.407 471.721 491.128 461.452 491.128 461.452L487.889 421Z" fill="#505F98"/>
<path d="M394.825 458.859C394.825 458.859 349.337 479.24 330.852 469.238C312.367 459.237 331.397 409 331.397 409L343.777 413.202C343.777 413.202 333.433 438.815 345.266 442.618C357.1 446.421 392.559 421.438 392.559 421.438L394.825 458.859Z" fill="#505F98"/>
<path d="M480.464 545.976C479.156 546.826 478.095 547.968 477.379 549.297C476.95 550.425 476.795 551.629 476.926 552.819C476.847 555.709 478.161 558.479 480.507 560.367C482.156 561.25 484.003 561.76 485.901 561.857C487.064 562.048 488.254 562.048 489.417 561.857C490.604 561.646 491.595 560.888 492.049 559.844C492.204 559.183 492.269 558.507 492.243 557.831C492.394 554.51 494.897 551.793 496.968 549.076C497.468 548.551 497.791 547.9 497.895 547.204C497.883 546.434 497.595 545.69 497.076 545.091C495.673 543.199 492.2 539.717 489.417 540.018C486.634 540.32 482.622 544.326 480.464 545.976Z" fill="#F4AD7D"/>
<path d="M351.583 401.435C352.176 400.611 352.58 399.679 352.769 398.698C352.92 397.683 352.384 396.687 351.429 396.211C349.913 395.647 348.111 397.13 346.617 396.504C346.112 396.235 345.688 395.846 345.387 395.375C343.623 392.945 342.61 390.093 342.465 387.143C342.551 385.571 342.403 383.995 342.025 382.463C341.581 380.886 339.998 379.849 338.29 380.018C336.884 380.331 336.093 381.689 335.214 382.776C334.335 383.863 332.578 385.158 331.435 386.516C329.484 389.307 328.368 392.55 328.205 395.898C327.59 400.077 327.195 404.861 330.271 407.87C332.644 410.189 339.872 412.927 343.19 411.694C346.859 410.315 349.737 404.444 351.583 401.435Z" fill="#F4AD7D"/>
<defs>
<linearGradient id="paint0_linear" x1="151.401" y1="315.166" x2="216.155" y2="186.6" gradientUnits="userSpaceOnUse">
<stop stop-color="#010101" stop-opacity="0.01"/>
<stop offset="0.95" stop-color="#010101"/>
</linearGradient>
<linearGradient id="paint1_linear" x1="206.562" y1="311.365" x2="299.416" y2="129.775" gradientUnits="userSpaceOnUse">
<stop stop-color="#010101" stop-opacity="0.01"/>
<stop offset="0.95" stop-color="#010101"/>
</linearGradient>
<linearGradient id="paint2_linear" x1="326.543" y1="320.092" x2="463.896" y2="9.94814" gradientUnits="userSpaceOnUse">
<stop stop-color="#010101" stop-opacity="0.01"/>
<stop offset="0.95" stop-color="#010101"/>
</linearGradient>
<linearGradient id="paint3_linear" x1="454.377" y1="336.583" x2="659.307" y2="-110.822" gradientUnits="userSpaceOnUse">
<stop stop-color="#010101" stop-opacity="0.01"/>
<stop offset="0.36" stop-color="#010101" stop-opacity="0.36"/>
<stop offset="0.95" stop-color="#010101"/>
</linearGradient>
<linearGradient id="paint4_linear" x1="305.725" y1="231.564" x2="422.885" y2="-10.0312" gradientUnits="userSpaceOnUse">
<stop stop-color="white" stop-opacity="0.01"/>
<stop offset="0.07" stop-color="white" stop-opacity="0.22"/>
<stop offset="0.16" stop-color="white" stop-opacity="0.45"/>
<stop offset="0.25" stop-color="white" stop-opacity="0.65"/>
<stop offset="0.33" stop-color="white" stop-opacity="0.8"/>
<stop offset="0.4" stop-color="white" stop-opacity="0.91"/>
<stop offset="0.46" stop-color="white" stop-opacity="0.98"/>
<stop offset="0.51" stop-color="white"/>
</linearGradient>
<linearGradient id="paint5_linear" x1="227.648" y1="178.444" x2="291.844" y2="42.555" gradientUnits="userSpaceOnUse">
<stop stop-color="white" stop-opacity="0.01"/>
<stop offset="0.07" stop-color="white" stop-opacity="0.22"/>
<stop offset="0.16" stop-color="white" stop-opacity="0.45"/>
<stop offset="0.25" stop-color="white" stop-opacity="0.65"/>
<stop offset="0.33" stop-color="white" stop-opacity="0.8"/>
<stop offset="0.4" stop-color="white" stop-opacity="0.91"/>
<stop offset="0.46" stop-color="white" stop-opacity="0.98"/>
<stop offset="0.51" stop-color="white"/>
</linearGradient>
<linearGradient id="paint6_linear" x1="532.971" y1="641.322" x2="543.392" y2="514.584" gradientUnits="userSpaceOnUse">
<stop stop-color="#010101" stop-opacity="0.01"/>
<stop offset="0.95" stop-color="#010101"/>
</linearGradient>
<linearGradient id="paint7_linear" x1="131.258" y1="178.517" x2="128.543" y2="628.071" gradientUnits="userSpaceOnUse">
<stop stop-color="white" stop-opacity="0.01"/>
<stop offset="0.07" stop-color="white" stop-opacity="0.22"/>
<stop offset="0.16" stop-color="white" stop-opacity="0.45"/>
<stop offset="0.25" stop-color="white" stop-opacity="0.65"/>
<stop offset="0.33" stop-color="white" stop-opacity="0.8"/>
<stop offset="0.4" stop-color="white" stop-opacity="0.91"/>
<stop offset="0.46" stop-color="white" stop-opacity="0.98"/>
<stop offset="0.51" stop-color="white"/>
</linearGradient>
<linearGradient id="paint8_linear" x1="-122.396" y1="616.073" x2="-122.296" y2="758.306" gradientUnits="userSpaceOnUse">
<stop stop-color="#010101" stop-opacity="0.01"/>
<stop offset="0.95" stop-color="#010101"/>
</linearGradient>
<linearGradient id="paint9_linear" x1="1030.02" y1="361.966" x2="1064.2" y2="-45.145" gradientUnits="userSpaceOnUse">
<stop stop-color="white" stop-opacity="0.01"/>
<stop offset="0.07" stop-color="white" stop-opacity="0.22"/>
<stop offset="0.16" stop-color="white" stop-opacity="0.45"/>
<stop offset="0.25" stop-color="white" stop-opacity="0.65"/>
<stop offset="0.33" stop-color="white" stop-opacity="0.8"/>
<stop offset="0.4" stop-color="white" stop-opacity="0.91"/>
<stop offset="0.46" stop-color="white" stop-opacity="0.98"/>
<stop offset="0.51" stop-color="white"/>
</linearGradient>
<linearGradient id="paint10_linear" x1="203.136" y1="251.87" x2="341.143" y2="620.142" gradientUnits="userSpaceOnUse">
<stop stop-color="white" stop-opacity="0.01"/>
<stop offset="0.07" stop-color="white" stop-opacity="0.22"/>
<stop offset="0.16" stop-color="white" stop-opacity="0.45"/>
<stop offset="0.25" stop-color="white" stop-opacity="0.65"/>
<stop offset="0.33" stop-color="white" stop-opacity="0.8"/>
<stop offset="0.4" stop-color="white" stop-opacity="0.91"/>
<stop offset="0.46" stop-color="white" stop-opacity="0.98"/>
<stop offset="0.51" stop-color="white"/>
</linearGradient>
<linearGradient id="paint11_linear" x1="306.667" y1="274.99" x2="303.341" y2="557.698" gradientUnits="userSpaceOnUse">
<stop stop-color="white" stop-opacity="0.01"/>
<stop offset="0.07" stop-color="white" stop-opacity="0.22"/>
<stop offset="0.16" stop-color="white" stop-opacity="0.45"/>
<stop offset="0.25" stop-color="white" stop-opacity="0.65"/>
<stop offset="0.33" stop-color="white" stop-opacity="0.8"/>
<stop offset="0.4" stop-color="white" stop-opacity="0.91"/>
<stop offset="0.46" stop-color="white" stop-opacity="0.98"/>
<stop offset="0.51" stop-color="white"/>
</linearGradient>
<linearGradient id="paint12_linear" x1="622.501" y1="466.704" x2="641.688" y2="-111.215" gradientUnits="userSpaceOnUse">
<stop stop-color="#010101" stop-opacity="0.01"/>
<stop offset="0.95" stop-color="#010101"/>
</linearGradient>
<linearGradient id="paint13_linear" x1="621.649" y1="467.045" x2="640.837" y2="-110.875" gradientUnits="userSpaceOnUse">
<stop stop-color="#010101" stop-opacity="0.01"/>
<stop offset="0.95" stop-color="#010101"/>
</linearGradient>
<linearGradient id="paint14_linear" x1="527.469" y1="464.354" x2="546.685" y2="-113.565" gradientUnits="userSpaceOnUse">
<stop stop-color="#010101" stop-opacity="0.01"/>
<stop offset="0.95" stop-color="#010101"/>
</linearGradient>
<linearGradient id="paint15_linear" x1="526.617" y1="464.694" x2="545.834" y2="-113.224" gradientUnits="userSpaceOnUse">
<stop stop-color="#010101" stop-opacity="0.01"/>
<stop offset="0.95" stop-color="#010101"/>
</linearGradient>
<linearGradient id="paint16_linear" x1="620.71" y1="468.545" x2="639.927" y2="-109.373" gradientUnits="userSpaceOnUse">
<stop stop-color="#010101" stop-opacity="0.01"/>
<stop offset="0.95" stop-color="#010101"/>
</linearGradient>
<linearGradient id="paint17_linear" x1="526.681" y1="466.236" x2="545.868" y2="-111.683" gradientUnits="userSpaceOnUse">
<stop stop-color="#010101" stop-opacity="0.01"/>
<stop offset="0.95" stop-color="#010101"/>
</linearGradient>
<linearGradient id="paint18_linear" x1="574.671" y1="467.396" x2="593.887" y2="-110.501" gradientUnits="userSpaceOnUse">
<stop stop-color="#010101" stop-opacity="0.01"/>
<stop offset="0.95" stop-color="#010101"/>
</linearGradient>
<linearGradient id="paint19_linear" x1="576.487" y1="464.843" x2="595.703" y2="-113.075" gradientUnits="userSpaceOnUse">
<stop stop-color="#010101" stop-opacity="0.01"/>
<stop offset="0.95" stop-color="#010101"/>
</linearGradient>
<linearGradient id="paint20_linear" x1="231.409" y1="479.399" x2="463.641" y2="696.094" gradientUnits="userSpaceOnUse">
<stop stop-color="white" stop-opacity="0.01"/>
<stop offset="0.07" stop-color="white" stop-opacity="0.22"/>
<stop offset="0.16" stop-color="white" stop-opacity="0.45"/>
<stop offset="0.25" stop-color="white" stop-opacity="0.65"/>
<stop offset="0.33" stop-color="white" stop-opacity="0.8"/>
<stop offset="0.4" stop-color="white" stop-opacity="0.91"/>
<stop offset="0.46" stop-color="white" stop-opacity="0.98"/>
<stop offset="0.51" stop-color="white"/>
</linearGradient>
<linearGradient id="paint21_linear" x1="580.276" y1="259.864" x2="578.491" y2="395.026" gradientUnits="userSpaceOnUse">
<stop stop-color="white" stop-opacity="0.01"/>
<stop offset="0.07" stop-color="white" stop-opacity="0.22"/>
<stop offset="0.16" stop-color="white" stop-opacity="0.45"/>
<stop offset="0.25" stop-color="white" stop-opacity="0.65"/>
<stop offset="0.33" stop-color="white" stop-opacity="0.8"/>
<stop offset="0.4" stop-color="white" stop-opacity="0.91"/>
<stop offset="0.46" stop-color="white" stop-opacity="0.98"/>
<stop offset="0.51" stop-color="white"/>
</linearGradient>
<linearGradient id="paint22_linear" x1="580.276" y1="369.864" x2="578.491" y2="505.026" gradientUnits="userSpaceOnUse">
<stop stop-color="white" stop-opacity="0.01"/>
<stop offset="0.07" stop-color="white" stop-opacity="0.22"/>
<stop offset="0.16" stop-color="white" stop-opacity="0.45"/>
<stop offset="0.25" stop-color="white" stop-opacity="0.65"/>
<stop offset="0.33" stop-color="white" stop-opacity="0.8"/>
<stop offset="0.4" stop-color="white" stop-opacity="0.91"/>
<stop offset="0.46" stop-color="white" stop-opacity="0.98"/>
<stop offset="0.51" stop-color="white"/>
</linearGradient>
<linearGradient id="paint23_linear" x1="216.435" y1="295.281" x2="216.418" y2="313.481" gradientUnits="userSpaceOnUse">
<stop stop-color="white" stop-opacity="0.01"/>
<stop offset="0.07" stop-color="white" stop-opacity="0.22"/>
<stop offset="0.16" stop-color="white" stop-opacity="0.45"/>
<stop offset="0.25" stop-color="white" stop-opacity="0.65"/>
<stop offset="0.33" stop-color="white" stop-opacity="0.8"/>
<stop offset="0.4" stop-color="white" stop-opacity="0.91"/>
<stop offset="0.46" stop-color="white" stop-opacity="0.98"/>
<stop offset="0.51" stop-color="white"/>
</linearGradient>
<linearGradient id="paint24_linear" x1="135.735" y1="348.052" x2="249.166" y2="258.635" gradientUnits="userSpaceOnUse">
<stop stop-color="#010101" stop-opacity="0.01"/>
<stop offset="0.95" stop-color="#010101"/>
</linearGradient>
<linearGradient id="paint25_linear" x1="185.575" y1="367.988" x2="346.851" y2="242.867" gradientUnits="userSpaceOnUse">
<stop stop-color="#010101" stop-opacity="0.01"/>
<stop offset="0.95" stop-color="#010101"/>
</linearGradient>
<linearGradient id="paint26_linear" x1="290.518" y1="426.751" x2="546.683" y2="204.028" gradientUnits="userSpaceOnUse">
<stop stop-color="#010101" stop-opacity="0.01"/>
<stop offset="0.95" stop-color="#010101"/>
</linearGradient>
<linearGradient id="paint27_linear" x1="399.278" y1="495.865" x2="774.961" y2="177.45" gradientUnits="userSpaceOnUse">
<stop stop-color="#010101" stop-opacity="0.01"/>
<stop offset="0.36" stop-color="#010101" stop-opacity="0.36"/>
<stop offset="0.95" stop-color="#010101"/>
</linearGradient>
<linearGradient id="paint28_linear" x1="247.536" y1="258.751" x2="430.476" y2="127.322" gradientUnits="userSpaceOnUse">
<stop stop-color="white" stop-opacity="0.01"/>
<stop offset="0.07" stop-color="white" stop-opacity="0.22"/>
<stop offset="0.16" stop-color="white" stop-opacity="0.45"/>
<stop offset="0.25" stop-color="white" stop-opacity="0.65"/>
<stop offset="0.33" stop-color="white" stop-opacity="0.8"/>
<stop offset="0.4" stop-color="white" stop-opacity="0.91"/>
<stop offset="0.46" stop-color="white" stop-opacity="0.98"/>
<stop offset="0.51" stop-color="white"/>
</linearGradient>
<linearGradient id="paint29_linear" x1="261.149" y1="256.517" x2="377.007" y2="160.658" gradientUnits="userSpaceOnUse">
<stop stop-color="white" stop-opacity="0.01"/>
<stop offset="0.07" stop-color="white" stop-opacity="0.22"/>
<stop offset="0.16" stop-color="white" stop-opacity="0.45"/>
<stop offset="0.25" stop-color="white" stop-opacity="0.65"/>
<stop offset="0.33" stop-color="white" stop-opacity="0.8"/>
<stop offset="0.4" stop-color="white" stop-opacity="0.91"/>
<stop offset="0.46" stop-color="white" stop-opacity="0.98"/>
<stop offset="0.51" stop-color="white"/>
</linearGradient>
<linearGradient id="paint30_linear" x1="126.736" y1="422.745" x2="164.921" y2="422.767" gradientUnits="userSpaceOnUse">
<stop stop-color="white" stop-opacity="0.01"/>
<stop offset="0.07" stop-color="white" stop-opacity="0.22"/>
<stop offset="0.16" stop-color="white" stop-opacity="0.45"/>
<stop offset="0.25" stop-color="white" stop-opacity="0.65"/>
<stop offset="0.33" stop-color="white" stop-opacity="0.8"/>
<stop offset="0.4" stop-color="white" stop-opacity="0.91"/>
<stop offset="0.46" stop-color="white" stop-opacity="0.98"/>
<stop offset="0.51" stop-color="white"/>
</linearGradient>
<linearGradient id="paint31_linear" x1="53.4448" y1="325.2" x2="65.0961" y2="363.932" gradientUnits="userSpaceOnUse">
<stop stop-color="#010101" stop-opacity="0.01"/>
<stop offset="0.95" stop-color="#010101"/>
</linearGradient>
<linearGradient id="paint32_linear" x1="78.2425" y1="473.933" x2="179.145" y2="475.976" gradientUnits="userSpaceOnUse">
<stop stop-color="#010101" stop-opacity="0.01"/>
<stop offset="0.95" stop-color="#010101"/>
</linearGradient>
<linearGradient id="paint33_linear" x1="481.014" y1="631.512" x2="384.921" y2="466.732" gradientUnits="userSpaceOnUse">
<stop stop-color="#010101" stop-opacity="0.01"/>
<stop offset="0.95" stop-color="#010101"/>
</linearGradient>
<linearGradient id="paint34_linear" x1="482.036" y1="169.892" x2="309.15" y2="174.761" gradientUnits="userSpaceOnUse">
<stop stop-color="#010101" stop-opacity="0.01"/>
<stop offset="0.95" stop-color="#010101"/>
</linearGradient>
</defs>
</svg>
