<svg width="145" height="143" viewBox="0 0 145 143" fill="none" xmlns="http://www.w3.org/2000/svg">
<path fill-rule="evenodd" clip-rule="evenodd" d="M144.944 59.2411V79.7145L132.234 79.8193C130.998 89.3456 127.374 98.4104 121.696 106.181L132.551 117.351L117.671 131.6L106.985 120.578C100.396 125.062 92.9606 128.17 85.1285 129.714V143H64.5579V130.029C55.7734 128.76 47.4007 125.497 40.0881 120.494L31.1517 129.316L16.5879 114.647L25.4611 105.993C19.8747 98.2193 16.312 89.191 15.0914 79.7145H0.84375V59.2411H15.5973C17.4263 51.0933 21.0228 43.4409 26.1355 36.8187L17.8946 28.3318L32.7746 14.0821L41.2052 22.8205C48.1755 18.2143 56.0995 15.2276 64.3893 14.0821V0H84.9599V14.3964C93.3286 16.0545 101.238 19.493 108.144 24.476L118.682 14.1659L133.162 28.709L122.624 39.1867C126.755 45.2671 129.688 52.0725 131.265 59.2411H144.944ZM38.8025 72.1496C38.7792 91.211 54.3018 106.682 73.4733 106.705C82.6848 106.733 91.5284 103.113 98.0499 96.6445C104.571 90.1762 108.234 81.3922 108.228 72.2334C108.252 53.1721 92.729 37.7011 73.5576 37.678C54.3862 37.6548 38.8258 53.0883 38.8025 72.1496Z" fill="#505F98"/>
</svg>
